<?xml version="1.0" encoding="UTF-8"?>
<svg width="48px" height="48px" viewBox="0 0 48 48" version="1.1" xmlns="http://www.w3.org/2000/svg" xmlns:xlink="http://www.w3.org/1999/xlink">
    <title>logo/gsma</title>
    <defs>
        <rect id="path-1" x="0" y="0" width="48" height="48" rx="6"></rect>
    </defs>
    <g id="Screens" stroke="none" stroke-width="1" fill="none" fill-rule="evenodd">
        <g id="Footer-feedback" transform="translate(-1561.000000, -979.000000)">
            <g id="Group" transform="translate(277.000000, 323.000000)">
                <g id="Group-9" transform="translate(108.000000, 310.000000)">
                    <g id="logo/gsma" transform="translate(1176.000000, 346.000000)">
                        <mask id="mask-2" fill="white">
                            <use xlink:href="#path-1"></use>
                        </mask>
                        <use id="Rectangle" fill="#FFFFFF" xlink:href="#path-1"></use>
                        <path d="M48,0 L48,48 L0,48 L0,0 L48,0 Z M8.15735172,29.2061793 C5.8992,29.2061793 4.77864828,29.7144828 4.21837241,30.2928 C3.70046897,30.8272552 3.44606897,31.5720828 3.44606897,32.4129103 C3.44606897,33.3154759 3.73473103,34.0255448 4.21837241,34.5249103 C4.77864828,35.1030621 5.74642759,35.6199724 8.15735172,35.6199724 C10.2711724,35.6199724 11.3147586,35.1902897 11.8497103,34.6382897 C12.2825379,34.1918897 12.4861241,33.6397241 12.4861241,32.7813517 L12.4861241,32.7813517 L12.4861241,32.0800552 L7.48667586,32.0800552 L7.48667586,33.1666759 L11.1368276,33.1666759 C11.1368276,33.4733793 11.0517517,33.7099034 10.8225103,33.9464276 C10.4833655,34.2971586 9.58311724,34.5595034 8.15735172,34.5595034 C6.35768276,34.5595034 5.63569655,34.2269793 5.24524138,33.8232828 C4.94846897,33.5172414 4.7702069,33.0792828 4.7702069,32.4129103 C4.7702069,31.7826207 4.93125517,31.3350621 5.24524138,31.0108138 C5.63569655,30.6082759 6.51028966,30.3014069 8.15735172,30.3014069 C9.79531034,30.3014069 11.2129655,30.6696828 12.0703448,31.151669 L12.0703448,31.151669 L12.0703448,29.9071448 C11.3488552,29.5304276 9.95685517,29.2061793 8.15735172,29.2061793 Z M17.3016828,29.2324966 C15.2136828,29.2324966 14.3981793,29.5304276 13.9824,29.9597793 C13.6601379,30.2928 13.5667862,30.7133793 13.5667862,31.1602759 C13.5667862,31.598069 13.6685793,31.9398621 13.905931,32.1854897 C14.3134345,32.6057379 15.0345931,32.8071724 17.4034759,32.9301517 C19.4999172,33.0438621 19.848,33.1229793 20.034869,33.3154759 C20.1366621,33.4205793 20.1790345,33.561269 20.1790345,33.7449931 C20.1790345,33.9024 20.1366621,34.051531 20.0181517,34.1741793 C19.7799724,34.4196414 19.2453517,34.5595034 17.5817379,34.5595034 C16.1640828,34.5595034 14.2882759,34.2006621 13.4052414,33.7627034 L13.4052414,33.7627034 L13.4052414,34.9104 C14.3220414,35.3217103 15.9348414,35.5938207 17.5817379,35.5938207 C19.8061241,35.5938207 20.6459586,35.2520276 21.0701793,34.8139034 C21.3927724,34.4810483 21.4862897,34.0606345 21.4862897,33.604469 C21.4862897,33.1666759 21.3588414,32.7896276 21.1211586,32.5444966 C20.7139862,32.1239172 20.0181517,31.9310897 17.5137103,31.7995034 C15.5786483,31.7033379 15.1795862,31.598069 15.0016552,31.4141793 C14.9160828,31.3266207 14.8737103,31.1950345 14.8737103,31.0374621 C14.8737103,30.8709517 14.9160828,30.7307586 15.0178759,30.6254897 C15.2136828,30.4243862 15.6802759,30.2663172 17.3016828,30.2663172 C18.6004966,30.2663172 20.0942897,30.5556414 20.9940414,30.9497379 L20.9940414,30.9497379 L20.9940414,29.8020414 C20.2046897,29.4777931 18.9566897,29.2324966 17.3016828,29.2324966 Z M24.5553103,29.3465379 L22.5793655,29.3465379 L22.5793655,35.4796138 L23.7821793,35.4796138 L23.7821793,30.345269 L26.9531586,35.4796138 L28.5929379,35.4796138 L31.7640828,30.345269 L31.7640828,35.4796138 L32.9743448,35.4796138 L32.9743448,29.3465379 L31.0455724,29.3465379 L27.7966345,34.6382897 L24.5553103,29.3465379 Z M39.4710621,29.3114483 L37.742069,29.3114483 L33.7322483,35.4796138 L35.1401379,35.4796138 L36.0625655,34.0341517 L41.0928,34.0341517 L42.014731,35.4796138 L43.4803862,35.4796138 L39.4710621,29.3114483 Z M38.5732966,30.0824276 L40.401269,32.9478621 L36.7536,32.9478621 L38.5732966,30.0824276 Z M42.7016276,29.3073103 L41.6731034,29.3073103 L41.6731034,29.5315862 L42.0751448,29.5315862 L42.0751448,30.6849103 L42.2997517,30.6849103 L42.2997517,29.5315862 L42.7016276,29.5315862 L42.7016276,29.3073103 Z M43.1741793,29.3073103 L42.9368276,29.3073103 L42.9368276,30.6849103 L43.1563034,30.6849103 L43.1563034,29.7007448 L43.5527172,30.3464276 L43.56,30.3464276 L43.9602207,29.6969379 L43.9602207,30.6849103 L44.1830069,30.6849103 L44.1830069,29.3073103 L43.9456552,29.3073103 L43.56,29.9586207 L43.1741793,29.3073103 Z M7.90973793,21.1630345 L3.63558621,21.1630345 L3.63558621,26.2046897 L7.90973793,26.2046897 L7.90973793,21.1630345 Z M15.926731,18.6441931 L9.51724138,18.6441931 L9.51724138,26.2046897 L15.926731,26.2046897 L15.926731,18.6441931 Z M27.138869,14.8646069 L17.5339034,14.8646069 L17.5339034,26.2046897 L27.138869,26.2046897 L27.138869,14.8646069 Z M43.1576276,9.1968 L28.9410207,9.1968 L28.9410207,26.2046897 L43.1576276,26.2046897 L43.1576276,9.1968 Z" id="Combined-Shape" fill="#101E1E" mask="url(#mask-2)"></path>
                    </g>
                </g>
            </g>
        </g>
    </g>
</svg>