<?xml version="1.0" encoding="UTF-8"?>
<svg width="180px" height="64px" viewBox="0 0 180 64" version="1.1" xmlns="http://www.w3.org/2000/svg" xmlns:xlink="http://www.w3.org/1999/xlink">
    <title>logo/positive/full</title>
    <g id="Screens" stroke="none" stroke-width="1" fill="none" fill-rule="evenodd">
        <g id="Footer-feedback" transform="translate(-385.000000, -897.000000)">
            <g id="Group" transform="translate(277.000000, 323.000000)">
                <g id="Group-9" transform="translate(108.000000, 310.000000)">
                    <g id="logo/positive/full" transform="translate(0.000000, 264.000000)">
                        <path d="M146.022499,26.248366 C150.663771,26.248366 154.153697,29.6734537 154.281362,34.0023839 L154.284982,34.248366 L154.284982,34.3006536 C154.284982,38.745098 150.751342,42.3529412 145.970534,42.3529412 C141.27826,42.3529412 137.837447,38.9782225 137.711619,34.6017216 L137.708051,34.3529412 L137.708051,34.3006536 C137.708051,29.8562092 141.241692,26.248366 146.022499,26.248366 Z M130.692735,26.248366 C133.031174,26.248366 134.642098,26.875817 135.941231,27.9738562 C136.201057,28.2352941 136.61678,28.7581699 136.61678,29.4901961 C136.61678,30.5882353 135.733369,31.4771242 134.642098,31.4771242 C134.07048,31.4771242 133.654757,31.2679739 133.394931,31.0588235 C132.667417,30.4313725 131.835972,30.0653595 130.692735,30.0653595 C128.510192,30.0653595 126.951233,32 126.951233,34.248366 L126.951233,34.248366 L126.951233,34.3006536 C126.951233,36.7058824 128.458227,38.5882353 130.848631,38.5882353 C131.991868,38.5882353 132.875278,38.2222222 133.706723,37.5424837 C133.966549,37.3333333 134.382272,37.124183 134.901925,37.124183 C135.941231,37.124183 136.72071,37.9607843 136.72071,39.0065359 C136.72071,39.5816993 136.460884,40 136.097127,40.3660131 C134.797994,41.5686275 133.18707,42.3529412 130.64077,42.3529412 C126.015858,42.3529412 122.638113,38.7973856 122.638113,34.3529412 L122.638113,34.3529412 L122.638113,34.3006536 C122.638113,29.8562092 126.015858,26.248366 130.692735,26.248366 Z M83.3523448,21.5424837 C86.3663323,21.5424837 88.3929791,22.3267974 90.0558688,23.5816993 C90.4715912,23.9477124 90.8873136,24.5751634 90.8873136,25.3594771 C90.8873136,26.5620915 89.8999729,27.503268 88.7047709,27.503268 C88.1331526,27.503268 87.7174302,27.2941176 87.4056384,27.0849673 C86.1584711,26.1437908 84.8593386,25.620915 83.3003795,25.620915 C79.9226349,25.620915 77.4802657,28.4444444 77.4802657,31.8954248 L77.4802657,31.8954248 L77.4802657,31.9477124 C77.4802657,35.3986928 79.8706696,38.2745098 83.3003795,38.2745098 C85.1711304,38.2745098 86.4182976,37.6993464 87.6654649,36.7058824 C87.9772567,36.4444444 88.4449444,36.2352941 88.9645975,36.2352941 C90.1078341,36.2352941 91.0432095,37.124183 91.0432095,38.2745098 C91.0432095,38.9542484 90.7314177,39.4771242 90.3156953,39.8431373 C88.4969097,41.4117647 86.4182976,42.3529412 83.1964489,42.3529412 C77.2724044,42.3529412 72.9073191,37.8039216 72.9073191,32.0522876 L72.9073191,32.0522876 L72.9073191,32 C72.9073191,26.248366 77.1684738,21.5424837 83.3523448,21.5424837 Z M174.759311,26.3529412 C177.98116,26.3529412 179.955842,28.2875817 179.955842,32 L179.955842,32 L179.955842,40 C179.955842,41.2026144 178.968501,42.1960784 177.773299,42.1960784 C176.578097,42.1960784 175.590756,41.2026144 175.590756,40 L175.590756,40 L175.590756,33.4117647 C175.590756,31.3202614 174.707346,30.2745098 173.044456,30.2745098 C171.381567,30.2745098 170.394226,31.3202614 170.394226,33.4117647 L170.394226,33.4117647 L170.394226,40 C170.394226,41.2026144 169.406885,42.1960784 168.211683,42.1960784 C167.016481,42.1960784 166.029141,41.2026144 166.029141,40 L166.029141,40 L166.029141,33.4117647 C166.029141,31.3202614 165.145731,30.2745098 163.482841,30.2745098 C161.819951,30.2745098 160.83261,31.3202614 160.83261,33.4117647 L160.83261,33.4117647 L160.83261,40 C160.83261,41.2026144 159.84527,42.1960784 158.650068,42.1960784 C157.454866,42.1960784 156.467525,41.2026144 156.467525,40 L156.467525,40 L156.51949,40 L156.51949,28.6535948 C156.51949,27.4509804 157.506831,26.4575163 158.702033,26.4575163 C159.897235,26.4575163 160.884576,27.4509804 160.884576,28.6535948 L160.884576,28.6535948 L160.884576,28.8104575 C161.871917,27.5555556 163.223014,26.3529412 165.405557,26.3529412 C167.380239,26.3529412 168.939198,27.2418301 169.718677,28.8104575 C171.069775,27.2418301 172.680699,26.3529412 174.759311,26.3529412 Z M118.896612,37.2287582 C120.35164,37.2287582 121.390946,38.3267974 121.390946,39.6862745 L121.390946,39.6862745 L121.390946,39.7385621 C121.390946,41.1503268 120.35164,42.1960784 118.896612,42.1960784 C117.441583,42.1960784 116.402277,41.0980392 116.402277,39.7385621 L116.402277,39.7385621 L116.402277,39.6862745 C116.402277,38.3267974 117.441583,37.2287582 118.896612,37.2287582 Z M111.569504,21.751634 C112.764706,21.751634 113.752047,22.6928105 113.752047,23.9477124 L113.752047,23.9477124 L113.752047,39.9477124 C113.752047,41.1503268 112.816671,42.1437908 111.569504,42.1437908 C110.374302,42.1437908 109.386961,41.1503268 109.386961,39.9477124 L109.386961,39.9477124 L109.386961,29.9084967 L105.541529,35.9215686 C105.073841,36.6535948 104.502223,37.0718954 103.722743,37.0718954 C102.943264,37.0718954 102.371645,36.6013072 101.903958,35.9215686 L101.903958,35.9215686 L98.1104906,30.0130719 L98.1104906,40.0522876 C98.1104906,41.254902 97.1231499,42.1960784 95.927948,42.1960784 C94.732746,42.1960784 93.7973706,41.254902 93.7973706,40.0522876 L93.7973706,40.0522876 L93.7973706,24 C93.7973706,22.7973856 94.732746,21.8039216 95.9799133,21.8039216 L95.9799133,21.8039216 L96.447601,21.8039216 C97.4349417,21.8039216 98.0585253,22.2745098 98.4742478,22.9542484 L98.4742478,22.9542484 L103.774709,31.6862745 L109.127135,22.9019608 C109.594822,22.1176471 110.218406,21.751634 111.101816,21.751634 L111.101816,21.751634 Z M145.970534,30.0653595 C143.551785,30.0653595 142.061445,31.8845256 141.973343,34.0448785 L141.969206,34.248366 L141.969206,34.3006536 C141.969206,36.6013072 143.632095,38.5882353 146.022499,38.5882353 C148.441248,38.5882353 149.882724,36.7690692 150.015248,34.6087163 L150.023828,34.4052288 L150.023828,34.3529412 C150.023828,32.0522876 148.360938,30.0653595 145.970534,30.0653595 Z" id="Combined-Shape" fill="#101E1E"></path>
                        <path d="M31.8833017,0 C14.2979127,0 0,14.379085 0,32 C0,49.620915 14.3500949,64 31.9354839,64 C49.5208729,64 63.8709677,49.6732026 63.8709677,32 C63.8709677,14.3267974 49.5208729,0 31.8833017,0" id="Path" fill="#101E1E"></path>
                        <path d="M52.523676,38.6021025 C52.523676,37.1993343 53.6643679,36.056338 55.0643079,36.056338 C56.464248,36.056338 57.6049399,37.1993343 57.6049399,38.6021025 C57.6049399,40.0048707 56.464248,41.147867 55.0643079,41.147867 C53.6125183,41.147867 52.523676,40.0048707 52.523676,38.6021025" id="Path" fill="#007FFF"></path>
                        <path d="M18.5103182,42.4467265 C12.6513099,42.4467265 7.88114389,37.6669237 7.88114389,31.7960791 C7.88114389,25.9252344 12.6513099,21.1454317 18.5103182,21.1454317 C19.6510101,21.1454317 20.7398523,21.3012948 21.8286946,21.6649754 C23.0212361,22.0806105 23.6434317,23.3275155 23.2804842,24.5224662 C22.8656872,25.7174169 21.6212961,26.3408694 20.4287545,25.9771888 C19.806559,25.7693713 19.1843634,25.6654625 18.5103182,25.6654625 C15.1400922,25.6654625 12.3920618,28.4190445 12.3920618,31.7960791 C12.3920618,35.1731136 15.1400922,37.9266956 18.5103182,37.9266956 C21.6212961,37.9266956 23.4360331,36.2641555 24.9396724,32.0038966 L28.2580488,22.6521086 C28.5691466,21.7688842 29.3987407,21.197386 30.332034,21.1454317 C31.2653274,21.1454317 32.0949215,21.7169298 32.4578689,22.6001542 L36.2947416,32.5753947 L40.1834639,22.6001542 C40.5464113,21.7169298 41.3241558,21.1454317 42.2574491,21.1454317 C42.2574491,21.1454317 42.2574491,21.1454317 42.3092988,21.1454317 C43.2425921,21.1454317 44.0721862,21.7688842 44.383284,22.6521086 L49.9311945,38.1345131 C50.3459915,39.2775094 49.723796,40.5763689 48.5831041,40.9920039 C47.4424122,41.4076389 46.1461714,40.7841864 45.7313744,39.6411901 L42.2055995,29.7698583 L38.4205764,39.5372813 C38.057629,40.4205057 37.2798846,40.9920039 36.3465912,40.9920039 L36.3465912,40.9920039 C35.4132979,40.9920039 34.5837038,40.4205057 34.272606,39.5372813 L30.4875829,29.8218127 L29.1913422,33.5105735 C27.7914021,37.3551975 25.2507702,42.4467265 18.5103182,42.4467265" id="Path" fill="#FFFFFF" fill-rule="nonzero"></path>
                    </g>
                </g>
            </g>
        </g>
    </g>
</svg>