<svg xmlns="http://www.w3.org/2000/svg" xmlns:xlink="http://www.w3.org/1999/xlink" width="24px" height="24px" viewBox="0 0 24 24" version="1.1">
<g stroke="none" stroke-width="1" fill="currentColor" fill-rule="evenodd">
    <path d="M4.31469115,18.3985204 L4.25649833,18.3278834 C4.24290774,18.3112727 4.22936959,18.2946176 4.21588413,18.2779183 C4.16432336,18.2142339 4.11368995,18.1499395 4.0638353,18.0850157 C4.0425031,18.057075 4.02094048,18.0286877 3.99952677,18.0001824 C3.61950825,17.4943839 3.28669554,16.9518747 3.00707433,16.3786574 C2.98390862,16.3311059 2.96092611,16.2830258 2.93831842,16.2347354 C2.80749293,15.9552984 2.68939241,15.6692372 2.5845224,15.3768735 C2.57665865,15.3549289 2.56896379,15.3332384 2.56134183,15.3115138 C2.48662476,15.0985781 2.41884078,14.8820767 2.35835335,14.6625504 C2.3539756,14.6466617 2.34954228,14.6304131 2.34514898,14.614148 L2.35835335,14.6625504 C2.3337739,14.5733445 2.3103993,14.4836392 2.28824815,14.393453 C2.2779457,14.351519 2.26776038,14.3088459 2.25784957,14.2660677 C2.23939887,14.1864111 2.22199702,14.1068609 2.20554823,14.0269627 C2.2036549,14.0177639 2.20187022,14.0090335 2.20009693,14.000299 C2.06893021,13.3544568 2,12.6852782 2,12 C2,6.4771525 6.4771525,2 12,2 C12.5205834,2 13.031876,2.03977924 13.5310037,2.1164639 L13.5320046,2.11661773 L13.6219521,2.13086684 C13.6416579,2.13408083 13.6613444,2.13735241 13.6810113,2.14068141 L13.5320046,2.11661773 C13.6491735,2.1346314 13.7656718,2.15467883 13.8814625,2.17672282 C13.9167296,2.18343893 13.9513871,2.19023061 13.98598,2.19720081 C14.0287794,2.20582183 14.0720749,2.21484423 14.1152666,2.2241456 C14.163468,2.23452811 14.2110941,2.24515504 14.2585907,2.25612031 C14.3032756,2.26643574 14.3479912,2.27708629 14.3925891,2.28803602 C14.4292219,2.29702959 14.4659073,2.30625901 14.5025116,2.31569049 C14.560098,2.33053055 14.6171259,2.34577168 14.6739507,2.36150186 C14.6962569,2.36767552 14.718967,2.37404833 14.7416442,2.38049916 C14.8000593,2.39711792 14.8579809,2.41417055 14.9156813,2.4317308 C14.9563496,2.44410862 14.9966876,2.45666842 15.0369152,2.46947587 C15.0753419,2.48170866 15.1139565,2.49426321 15.1524671,2.50704555 C15.1934061,2.52063464 15.2340777,2.5344292 15.2746309,2.5484774 C15.330467,2.56781904 15.3861952,2.58768427 15.4416928,2.60802737 C15.4607977,2.61503056 15.4798065,2.62206471 15.498788,2.62915489 C15.5528355,2.64934408 15.6065408,2.66994 15.660021,2.69098347 C15.7160401,2.7130217 15.7724058,2.73579721 15.8285139,2.75906883 C15.8429332,2.76504967 15.8572275,2.77101787 15.8715049,2.77701824 C15.9297861,2.801512 15.9877945,2.82654572 16.0455157,2.85210972 C16.0799894,2.86737936 16.1139913,2.88266953 16.1478917,2.89814353 C16.1831434,2.91423167 16.2188572,2.93078773 16.2544561,2.9475476 C16.3055186,2.97159106 16.3558534,2.99581236 16.4059521,3.02044057 C16.4337135,3.03408643 16.4617773,3.0480459 16.4897658,3.06213296 C16.5295854,3.08217692 16.5688837,3.10228719 16.6080304,3.1226488 C16.6563654,3.14778749 16.7047666,3.17347032 16.7529297,3.199537 C16.7870919,3.21802649 16.8210609,3.23666832 16.8549092,3.25550097 C16.8977996,3.27936455 16.940495,3.30353384 16.9829936,3.32800656 C17.0093522,3.34318512 17.0356409,3.35848376 17.0618531,3.37389847 C17.1150745,3.40519605 17.1680481,3.43701342 17.2206998,3.46930457 C17.2438306,3.48349224 17.2664541,3.4974934 17.2890173,3.51158202 C17.3442447,3.54606187 17.399589,3.58137721 17.454559,3.61721861 C17.4705414,3.62763938 17.4864884,3.63810216 17.5024035,3.64860921 C17.5593604,3.68621202 17.6158699,3.72435423 17.6719646,3.76305465 C17.6887995,3.77466864 17.7057978,3.78647326 17.7227577,3.79832914 C17.7674064,3.82954354 17.8114877,3.86089563 17.8553018,3.89259417 C17.8882814,3.91645319 17.9212669,3.94062518 17.9540978,3.96499362 C17.9922279,3.99329464 18.0302309,4.02192287 18.0680218,4.05081449 C18.0959177,4.07214229 18.1235118,4.09346809 18.1509908,4.11493439 C18.1913535,4.14646312 18.2317355,4.17851073 18.2718624,4.21086208 C18.3031144,4.23605925 18.3340621,4.26131705 18.3648548,4.2867557 C18.4000521,4.31583253 18.4351193,4.34520698 18.4699808,4.37481623 C18.4982279,4.3988087 18.5261719,4.42280936 18.5539812,4.44696106 C18.5945028,4.48215127 18.6349299,4.51783388 18.6750643,4.55383624 C18.6939551,4.57078199 18.7128133,4.58782791 18.7316059,4.60494448 C18.7656298,4.63593796 18.7989532,4.66670827 18.8320656,4.69770118 C18.8676527,4.73101159 18.9028743,4.76446164 18.937851,4.79816411 C18.9728552,4.83189356 19.0075531,4.86581548 19.0420038,4.89998639 C19.0712267,4.92897056 19.100448,4.95831316 19.1294873,4.98783529 C19.1661708,5.0251323 19.2022239,5.06235928 19.2379884,5.09986384 C19.2632384,5.12634122 19.2884811,5.15310329 19.3135772,5.18000395 C19.3364699,5.20454283 19.3592356,5.22919166 19.3818784,5.25395481 C19.4181133,5.29358388 19.453958,5.33342057 19.4894853,5.37354485 C19.5199789,5.40798166 19.5504767,5.44290667 19.5807343,5.47804436 C19.6064132,5.50786464 19.631937,5.53785938 19.657286,5.56800595 C19.6897128,5.60657172 19.7216976,5.64519462 19.7533959,5.68406034 C19.7716301,5.70641553 19.790035,5.72918243 19.8083417,5.75203142 C19.852409,5.80703614 19.8957236,5.86227723 19.9384651,5.91798111 C19.9497904,5.93274138 19.9610264,5.94746935 19.9722223,5.96222938 C20.0071562,6.00828192 20.0418426,6.05484107 20.0761309,6.10170986 C20.0962924,6.12927277 20.1159018,6.15636407 20.1353783,6.18355707 C20.1671747,6.22794275 20.1991252,6.27333428 20.2307054,6.31900142 C20.2473981,6.34314139 20.2638663,6.36717993 20.2802319,6.39129373 C20.4079794,6.57953113 20.5293662,6.77216525 20.6442172,6.96907885 C20.7098592,7.08162698 20.7732925,7.19543478 20.8345405,7.31058188 C20.847346,7.33465546 20.8601425,7.35895326 20.8728416,7.38330989 C20.9043297,7.44370493 20.9351784,7.50437916 20.9654223,7.5654063 C21.0519703,7.74005135 21.1335134,7.91746364 21.2099271,8.09757884 C21.2347447,8.15607058 21.2591545,8.21517892 21.2830109,8.27456915 C21.2912468,8.29507419 21.2993039,8.31532626 21.3072965,8.33561074 C21.3302018,8.3937368 21.35268,8.45240241 21.3746185,8.51133072 C21.4467491,8.70507204 21.5130761,8.90175374 21.5733493,9.10106408 C21.6174844,9.24699614 21.6584363,9.39458322 21.6960476,9.54349988 C21.7244957,9.65614597 21.7509901,9.76935674 21.7755433,9.88328931 C21.7838094,9.9216397 21.7919207,9.96039265 21.7998069,9.99922734 L21.7755433,9.88328931 C21.797158,9.98358665 21.8172683,10.0844434 21.8358494,10.1858347 C21.8608612,10.3223637 21.8830133,10.4592436 21.9023576,10.5970244 C21.9330046,10.8153657 21.9565738,11.0356061 21.9728786,11.2578647 C21.9769588,11.3134857 21.9805831,11.3692152 21.983749,11.4250674 C21.9945336,11.615315 22,11.8070191 22,12 C22,17.5228475 17.5228475,22 12,22 C9.59864107,22 7.39497596,21.1535722 5.67107713,19.7427889 L5.67027087,19.7421273 L5.64416993,19.720691 C5.48951675,19.5932307 5.33875921,19.4612138 5.19210275,19.3248458 C5.16260128,19.2973102 5.13316642,19.269604 5.10390053,19.2417227 C5.05270687,19.1930706 5.00207786,19.1438162 4.95197329,19.0940345 C4.93162882,19.073687 4.91131599,19.0533295 4.89109079,19.0328854 C4.83308926,18.9743996 4.77586961,18.9151271 4.71938265,18.8551568 C4.7070934,18.8419557 4.69475396,18.828784 4.68244987,18.815579 L4.65829585,18.7897221 C4.54044301,18.6623499 4.42586356,18.5319047 4.31469115,18.3985204 Z M12,4 C7.581722,4 4,7.581722 4,12 C4,12.6903672 4.08744724,13.36031 4.25186923,13.999356 L5,14 C5.55228475,14 6,14.4477153 6,15 L5.99960477,17.291201 C7.46550339,18.9523019 9.6104002,20 12,20 C15.7387372,20 18.8784579,17.4353052 19.7558094,13.9692683 C19.3213635,13.8607574 19,13.4679079 19,13 L19,11.684 L16,11.684 L16,17 C16,17.5522847 15.5522847,18 15,18 L12,18 C11.4477153,18 11,17.5522847 11,17 L11,14 L9,14 C8.44771525,14 8,13.5522847 8,13 L8,10 C8,9.44771525 8.44771525,9 9,9 L13.807,9 L13.807,7.684 L10.8070809,7.6848376 C10.2547962,7.6848376 9.80708095,7.23712235 9.80708095,6.6848376 C9.80708095,6.13255285 10.2547962,5.6848376 10.8070809,5.6848376 L13,5.684 L13.0009551,4.06201291 C12.6730544,4.02108425 12.3389895,4 12,4 Z" fill="currentColor" data-name="Homepage International"/>
</g>
</svg>
