<?xml version="1.0" encoding="UTF-8"?>
<svg width="20px" height="21px" viewBox="0 0 20 21" version="1.1" xmlns="http://www.w3.org/2000/svg" xmlns:xlink="http://www.w3.org/1999/xlink">
    <g id="colors-+-typography" stroke="none" stroke-width="1" fill="none" fill-rule="evenodd">
        <g id="🎨-Icon-Colour" transform="translate(-2.000000, -2.000000)" fill="currentColor">
            <path d="M12.0000719,3.84454554 C9.33525417,3.84454554 9.01963256,3.85483425 7.96723042,3.90354484 C6.99421897,3.94859813 6.46577959,4.11353897 6.11410732,4.25215519 C5.6482614,4.43582469 5.31576334,4.65526353 4.96654727,5.0095407 C4.6173312,5.36381788 4.4010272,5.70113476 4.22002116,6.17369188 C4.08334556,6.53050103 3.92076101,7.06659896 3.87635135,8.05375221 C3.82833661,9.12136637 3.81819489,9.4415622 3.81819489,12.1450005 C3.81819489,14.8484387 3.82833661,15.1686345 3.87635135,16.2362889 C3.92076101,17.223402 4.08334556,17.7594999 4.22002116,18.116309 C4.4010272,18.5888662 4.6173312,18.926183 4.96654727,19.2804602 C5.31576334,19.6347374 5.6482614,19.8541762 6.11410732,20.0378055 C6.46577959,20.1764619 6.99421897,20.3414028 7.96727003,20.3864561 C9.0194741,20.4351667 9.3350957,20.4454554 12.0000719,20.4454554 C14.6650481,20.4454554 14.9806697,20.4351667 16.0328737,20.3864561 C17.0059248,20.3414028 17.5343642,20.1764619 17.8860761,20.0378055 C18.3518824,19.8541762 18.6843804,19.6347374 19.0335965,19.2804602 C19.3828126,18.926183 19.5991166,18.5888662 19.7801226,18.116309 C19.9167982,17.7594999 20.0793827,17.223402 20.1237924,16.2362487 C20.1718071,15.1686345 20.1819489,14.8484387 20.1819489,12.1450005 C20.1819489,9.4415622 20.1718071,9.12136637 20.1237924,8.05371202 C20.0793827,7.06659896 19.9167982,6.53050103 19.7801226,6.17369188 C19.5991166,5.70113476 19.3828126,5.36381788 19.0335965,5.0095407 C18.6843804,4.65526353 18.3518824,4.43582469 17.8860761,4.25215519 C17.5343642,4.11353897 17.0059248,3.94859813 16.0328737,3.90354484 C14.9805112,3.85483425 14.6648896,3.84454554 12.0000719,3.84454554 Z M12.000052,2 C14.7159283,2 15.0564747,2.01167849 16.123049,2.06105029 C17.1874798,2.11034156 17.914381,2.28181396 18.5504989,2.53261952 C19.2080921,2.79188192 19.765772,3.13877324 20.3217054,3.70276359 C20.8776387,4.26675394 21.2195744,4.8325162 21.4751331,5.49963967 C21.7223557,6.14497672 21.8913785,6.88241273 21.9399656,7.96227001 C21.9886321,9.04430191 22.0001438,9.38978376 22.0001438,12.1450206 C22.0001438,14.9002574 21.9886321,15.2457393 21.9399656,16.3277712 C21.8913785,17.4076285 21.7223557,18.1450645 21.4751331,18.7904015 C21.2195744,19.457525 20.8776387,20.0232872 20.3217054,20.5872776 C19.765772,21.151268 19.2080921,21.4981593 18.5504989,21.7574217 C17.914381,22.0082272 17.1874798,22.1796996 16.123049,22.2289909 C15.0564747,22.2783627 14.7159283,22.2900009 12.000052,22.2900009 C9.28417572,22.2900009 8.94366903,22.2783627 7.87705503,22.2289909 C6.81262428,22.1796996 6.08572307,22.0082272 5.44960512,21.7574217 C4.79201199,21.4981593 4.23433204,21.151268 3.6783987,20.5872776 C3.12246535,20.0232872 2.78052962,19.4574847 2.52497098,18.7904015 C2.27774835,18.1450645 2.10872556,17.4076285 2.06013845,16.3277712 C2.01147196,15.2457393 2,14.9002574 2,12.1450206 C2,9.38978376 2.01147196,9.04430191 2.06013845,7.96227001 C2.10872556,6.88241273 2.27774835,6.14497672 2.52497098,5.49963967 C2.78052962,4.8325162 3.12246535,4.26675394 3.6783987,3.70276359 C4.23433204,3.13877324 4.79201199,2.79188192 5.44960512,2.53261952 C6.08572307,2.28181396 6.81262428,2.11034156 7.87705503,2.06105029 C8.94366903,2.01167849 9.28417572,2 12.000052,2 Z M7.01060684,12.1557246 C7.01060684,9.35427246 9.24921142,7.08322433 12.0106428,7.08322433 C14.7720741,7.08322433 17.0106787,9.35427246 17.0106787,12.1557246 C17.0106787,14.9571767 14.7720741,17.2282248 12.0106428,17.2282248 C9.24921142,17.2282248 7.01060684,14.9571767 7.01060684,12.1557246 Z M8.82880173,12.1557246 C8.82880173,13.9384532 10.2533817,15.3836793 12.0106428,15.3836793 C13.7679039,15.3836793 15.1924838,13.9384532 15.1924838,12.1557246 C15.1924838,10.3729959 13.7679039,8.92776987 12.0106428,8.92776987 C10.2533817,8.92776987 8.82880173,10.3729959 8.82880173,12.1557246 Z M18.8077318,7.07247735 C18.8077318,7.83652026 18.1972362,8.45590938 17.4441082,8.45590938 C16.6909802,8.45590938 16.0804395,7.83652026 16.0804395,7.07247735 C16.0804395,6.30843444 16.6909802,5.68909108 17.4441082,5.68909108 C18.1972362,5.68909108 18.8077318,6.30843444 18.8077318,7.07247735 Z"></path>
        </g>
    </g>
</svg>
