<svg width="20" height="20" viewBox="0 0 20 20" xmlns="http://www.w3.org/2000/svg" xmlns:xlink="http://www.w3.org/1999/xlink"><defs><path d="M19.043 19.043h-2.965V14.4c0-1.107-.02-2.53-1.541-2.53-1.544 0-1.78 1.205-1.78 2.45v4.722H9.792V9.498h2.846v1.304h.04c.395-.75 1.363-1.541 2.806-1.541 3.004 0 3.559 1.976 3.559 4.546v5.236zM6.449 8.193a1.72 1.72 0 110-3.44 1.72 1.72 0 010 3.44zm-1.484 10.85h2.967V9.498H4.965v9.545zM20.52 2H3.476C2.662 2 2 2.646 2 3.442v17.115C2 21.353 2.662 22 3.476 22H20.52c.816 0 1.48-.647 1.48-1.443V3.442C22 2.646 21.336 2 20.52 2z" id="f-linkedin_svg__a"/></defs><g transform="translate(-2 -2)" fill="none" fill-rule="evenodd"><mask id="f-linkedin_svg__b" fill="#fff"><use xlink:href="#f-linkedin_svg__a"/></mask><use fill="currentColor" xlink:href="#f-linkedin_svg__a"/></g></svg>