<svg width="18" height="15" viewBox="0 0 18 15" xmlns="http://www.w3.org/2000/svg" xmlns:xlink="http://www.w3.org/1999/xlink"><defs><path d="M8.661 19.629c6.793 0 10.508-5.628 10.508-10.508 0-.159-.004-.318-.011-.477A7.492 7.492 0 0021 6.732a7.422 7.422 0 01-2.12.582 3.716 3.716 0 001.624-2.043 7.437 7.437 0 01-2.345.896 3.694 3.694 0 00-6.293 3.367 10.483 10.483 0 01-7.613-3.858 3.693 3.693 0 001.143 4.931 3.675 3.675 0 01-1.672-.462l-.001.046a3.693 3.693 0 002.963 3.621 3.68 3.68 0 01-1.668.063 3.698 3.698 0 003.45 2.566 7.412 7.412 0 01-4.587 1.58c-.298 0-.592-.017-.881-.051a10.454 10.454 0 005.661 1.659" id="f-twitter_svg__a"/></defs><g transform="translate(-3 -4.8)" fill="none" fill-rule="evenodd"><mask id="f-twitter_svg__b" fill="#fff"><use xlink:href="#f-twitter_svg__a"/></mask><use fill="currentColor" xlink:href="#f-twitter_svg__a"/></g></svg>