<svg width="20" height="20" viewBox="0 0 20 20" xmlns="http://www.w3.org/2000/svg" xmlns:xlink="http://www.w3.org/1999/xlink"><defs><path d="M20.658 6.98a9.946 9.946 0 00-3.639-3.639C15.487 2.446 13.814 2 12 2c-1.815 0-3.488.447-5.02 1.341A9.954 9.954 0 003.341 6.98C2.447 8.512 2 10.185 2 11.999c0 2.179.636 4.139 1.907 5.879 1.272 1.74 2.915 2.945 4.929 3.613.234.044.408.013.52-.091a.504.504 0 00.169-.39l-.006-.703a103.16 103.16 0 01-.007-1.159l-.299.052c-.191.035-.432.05-.723.045a5.452 5.452 0 01-.904-.091 2.019 2.019 0 01-.873-.39 1.652 1.652 0 01-.573-.801l-.13-.299A3.135 3.135 0 005.599 17c-.186-.244-.375-.408-.565-.495l-.092-.066a.948.948 0 01-.169-.156.699.699 0 01-.117-.182c-.026-.061-.005-.111.065-.15.07-.039.195-.058.377-.058l.261.039c.174.034.389.138.645.312s.466.399.631.677c.2.356.44.627.722.814.282.186.567.28.854.28.286 0 .533-.022.742-.065.208-.044.403-.109.586-.196.078-.582.29-1.028.638-1.341a8.91 8.91 0 01-1.335-.234 5.334 5.334 0 01-1.224-.509 3.465 3.465 0 01-1.048-.872c-.278-.347-.506-.803-.683-1.367-.178-.564-.268-1.215-.268-1.953 0-1.05.344-1.944 1.029-2.682-.321-.79-.291-1.675.091-2.656.252-.078.625-.02 1.12.175.494.196.857.363 1.087.502.231.139.415.256.554.351A9.263 9.263 0 0112 6.83c.859 0 1.692.113 2.5.338l.495-.312a6.964 6.964 0 011.197-.573c.46-.174.812-.221 1.055-.143.39.981.426 1.866.104 2.656.686.738 1.029 1.632 1.029 2.682 0 .738-.089 1.391-.267 1.96-.178.568-.407 1.024-.689 1.367a3.645 3.645 0 01-1.055.866c-.422.234-.83.403-1.225.508-.394.104-.84.182-1.334.234.452.391.677 1.007.677 1.849v2.747c0 .156.054.286.162.391.11.103.28.134.515.091 2.014-.669 3.657-1.873 4.929-3.614C21.364 16.137 22 14.178 22 11.999c0-1.814-.447-3.487-1.342-5.019" id="f-github_svg__a"/></defs><g transform="translate(-2 -2)" fill="none" fill-rule="evenodd"><mask id="f-github_svg__b" fill="#fff"><use xlink:href="#f-github_svg__a"/></mask><use fill="currentColor" xlink:href="#f-github_svg__a"/></g></svg>